#!OML:ASF F:\VICON\USERDATA\INSTALL\Justin_Nancy\Justin_Nancy.ASF
:FULLY-SPECIFIED
:DEGREES
173
root 13.3239 17.6221 -1.48365 -0.053915 0.881914 2.53029
lowerback 7.64283 -0.413194 -4.6681
upperback 0.365997 -0.896005 1.46743
thorax -3.81522 -0.351507 4.25292
lowerneck -16.4333 -4.21722 -9.92161
upperneck 25.3818 -4.92631 6.31992
head 11.3886 -2.42213 3.27618
rclavicle 1.83876e-015 5.96354e-015
rhumerus -33.4177 -18.0379 -77.6997
rradius 27.0627
rwrist 11.0955
rhand -12.9644 12.5348
rfingers 7.12502
rthumb 13.1275 -17.032
lclavicle 1.83876e-015 5.96354e-015
lhumerus -27.5335 12.406 82.3698
lradius 24.3772
lwrist -11.2742
lhand -13.7326 28.685
lfingers 7.12502
lthumb 12.3869 58.298
rfemur -22.0371 -7.91007 20.6261
rtibia 63.8076
rfoot -8.44593 -17.1472
rtoes 15.6937
lfemur -14.2067 1.80184 -23.4704
ltibia 27.156
lfoot -9.98863 2.42235
ltoes -5.73907
174
root 13.3195 17.615 -1.36927 -0.0496227 0.833308 2.62417
lowerback 7.75332 -0.410854 -4.73038
upperback 0.395897 -0.904856 1.42056
thorax -3.84491 -0.354945 4.24182
lowerneck -16.4871 -4.26766 -9.95006
upperneck 25.3298 -5.03141 6.49033
head 11.3949 -2.45027 3.32722
rclavicle 7.35503e-015 3.57812e-015
rhumerus -33.6745 -18.025 -77.7345
rradius 27.3859
rwrist 10.6805
rhand -13.0737 12.9566
rfingers 7.12502
rthumb 13.0222 -16.617
lclavicle 7.35503e-015 3.57812e-015
lhumerus -27.1683 11.4137 82.5646
lradius 24.9948
lwrist -10.8518
lhand -13.1537 30.4671
lfingers 7.12502
lthumb 12.945 60.0455
rfemur -22.7663 -8.21932 20.6592
rtibia 62.9018
rfoot -8.608 -17.3165
rtoes 9.98022
lfemur -14.0711 1.75045 -23.6002
ltibia 27.851
lfoot -10.0689 1.90908
ltoes -3.11512
175
root 13.3151 17.6239 -1.2583 0.00244244 0.790455 2.59748
lowerback 7.85211 -0.470478 -4.70731
upperback 0.348483 -0.986796 1.43947
thorax -3.94101 -0.39213 4.26
lowerneck -16.8412 -4.23928 -9.79315
upperneck 25.6627 -4.99582 6.41703
head 11.5819 -2.42502 3.28216
rclavicle 4.67144e-015 -3.97569e-016
rhumerus -33.9613 -17.8959 -77.7567
rradius 27.5361
rwrist 10.4937
rhand -13.0464 13.1798
rfingers 7.12502
rthumb 13.0485 -16.3921
lclavicle 4.67144e-015 -3.97569e-016
lhumerus -27.0012 10.5551 82.623
lradius 25.4587
lwrist -10.6973
lhand -13.1546 28.1643
lfingers 7.12502
lthumb 12.9442 57.7428
rfemur -23.4729 -8.50584 20.8393
rtibia 61.7708
rfoot -8.62538 -17.6594
rtoes 6.76829
lfemur -13.9175 1.73442 -23.5602
ltibia 28.456
lfoot -10.5186 1.40235
ltoes -0.880042
176
root 13.3122 17.6342 -1.15229 0.0277074 0.852096 2.82187
lowerback 7.97957 -0.555245 -4.97111
upperback 0.351343 -1.12931 1.4446
thorax -3.98929 -0.456619 4.43322
lowerneck -17.6989 -4.13995 -9.39709
upperneck 25.9684 -4.82502 6.15445
head 11.8354 -2.32972 3.14149
rclavicle -1.66482e-014 2.78299e-015
rhumerus -34.1983 -17.9038 -77.6038
rradius 27.7052
rwrist 10.5789
rhand -12.8212 13.2964
rfingers 7.12502
rthumb 13.2655 -16.2615
lclavicle -1.66482e-014 2.78299e-015
lhumerus -26.4651 10.2275 82.6544
lradius 25.2079
lwrist -10.9857
lhand -13.7791 25.5504
lfingers 7.12502
lthumb 12.3421 55.1661
rfemur -24.0218 -8.93285 20.7104
rtibia 60.538
rfoot -6.87329 -18.3386
rtoes 14.1261
lfemur -13.5218 2.06664 -23.7875
ltibia 28.8623
lfoot -11.367 1.56473
ltoes -0.616558
177
root 13.3073 17.6252 -1.04745 0.120307 0.822299 2.97357
lowerback 8.10727 -0.61768 -5.18558
upperback 0.315209 -1.23816 1.47012
thorax -4.08166 -0.502718 4.59737
lowerneck -16.5946 -4.16448 -9.81517
upperneck 25.3362 -4.90879 6.4688
head 11.4013 -2.38333 3.31429
rclavicle 9.19379e-015 -1.19271e-015
rhumerus -34.4354 -17.8361 -77.5157
rradius 28.0051
rwrist 10.5211
rhand -12.7212 12.8374
rfingers 7.12502
rthumb 13.3619 -16.7142
lclavicle 9.19379e-015 -1.19271e-015
lhumerus -25.7982 9.76166 82.8481
lradius 25.3861
lwrist -9.99223
lhand -13.1574 28.9867
lfingers 7.12502
lthumb 12.9415 58.5653
rfemur -24.7346 -9.27439 20.737
rtibia 59.3014
rfoot -5.87623 -19.2733
rtoes 19.4763
lfemur -13.4498 2.37722 -23.9411
ltibia 29.329
lfoot -11.9998 1.88164
ltoes -0.436545
178
root 13.3005 17.6073 -0.944243 0.246876 0.625534 3.04992
lowerback 8.20304 -0.621101 -5.29751
upperback 0.23826 -1.25952 1.47358
thorax -4.2112 -0.50517 4.67073
lowerneck -16.259 -4.17979 -9.8644
upperneck 25.1253 -4.96106 6.53535
head 11.263 -2.40803 3.33815
rclavicle -1.10822e-014 7.95139e-015
rhumerus -34.5721 -17.6709 -77.5335
rradius 28.0919
rwrist 10.4282
rhand -12.6274 12.2626
rfingers 7.12502
rthumb 13.4523 -17.283
lclavicle -1.10822e-014 7.95139e-015
lhumerus -25.4733 9.20508 82.8983
lradius 25.5993
lwrist -9.58973
lhand -13.2473 29.8995
lfingers 7.12502
lthumb 12.8548 59.4837
rfemur -25.5641 -9.37543 20.9104
rtibia 58.0546
rfoot -6.55077 -20.2499
rtoes 20.3868
lfemur -13.5245 2.42887 -24.0179
ltibia 29.7747
lfoot -12.4961 2.27199
ltoes -0.405935
179
root 13.294 17.5934 -0.842745 0.349799 0.263516 3.08438
lowerback 8.25429 -0.582431 -5.30277
upperback 0.204638 -1.21402 1.42626
thorax -4.28156 -0.479891 4.62068
lowerneck -16.4151 -4.20189 -9.71548
upperneck 25.1984 -5.01739 6.51048
head 11.3216 -2.42041 3.29505
rclavicle -2.33572e-015 1.59028e-015
rhumerus -34.675 -17.8634 -77.4889
rradius 27.9195
rwrist 10.977
rhand -12.8306 12.5688
rfingers 7.12502
rthumb 13.2565 -16.9896
lclavicle -2.33572e-015 1.59028e-015
lhumerus -25.4122 8.70306 82.7658
lradius 26.0269
lwrist -9.58926
lhand -14.0726 27.3816
lfingers 7.12502
lthumb 12.0591 57.0141
rfemur -26.303 -9.31761 21.1236
rtibia 56.7631
rfoot -11.3465 -20.2374
rtoes 17.5977
lfemur -13.3026 2.46091 -24.0312
ltibia 30.0334
lfoot -12.9075 2.67244
ltoes 1.02098
180
root 13.2885 17.5729 -0.743196 0.537897 -0.0125518 3.15918
lowerback 8.13607 -0.573719 -5.27903
upperback 0.313579 -1.19401 1.37449
thorax -4.10496 -0.479103 4.54573
lowerneck -16.4879 -4.29695 -9.85182
upperneck 25.1068 -5.14664 6.66681
head 11.3227 -2.47102 3.35424
rclavicle 1.39149e-015 -7.95139e-016
rhumerus -34.5094 -18.0964 -77.5015
rradius 27.7175
rwrist 11.642
rhand -13.5645 14.2652
rfingers 7.12502
rthumb 12.549 -15.3379
lclavicle 1.39149e-015 -7.95139e-016
lhumerus -24.7509 8.47337 82.6926
lradius 26.0542
lwrist -9.67282
lhand -15.4495 22.9362
lfingers 7.12502
lthumb 10.7312 52.6421
rfemur -27.1017 -9.38326 21.2988
rtibia 55.4057
rfoot -9.60434 -21.2317
rtoes 11.0389
lfemur -13.2002 2.42775 -24.122
ltibia 30.1708
lfoot -13.1503 3.12987
ltoes 1.85718
181
root 13.2788 17.553 -0.63406 0.711416 -0.290527 3.40114
lowerback 8.03644 -0.58889 -5.56536
upperback 0.323475 -1.23551 1.3628
thorax -4.02845 -0.497144 4.69786
lowerneck -16.6984 -4.44236 -9.8131
upperneck 25.142 -5.29799 6.49293
head 11.3873 -2.55353 3.25758
rclavicle -1.1778e-014 -1.66979e-014
rhumerus -34.514 -18.0038 -77.5234
rradius 27.7252
rwrist 11.8008
rhand -14.0948 15.0121
rfingers 7.12502
rthumb 12.0377 -14.6217
lclavicle -1.1778e-014 -1.66979e-014
lhumerus -24.3726 8.16708 82.6553
lradius 26.2555
lwrist -9.4687
lhand -14.7455 26.599
lfingers 7.12502
lthumb 11.4102 56.2686
rfemur -27.8655 -9.44643 21.3154
rtibia 53.9342
rfoot -9.19864 -22.0834
rtoes 8.9002
lfemur -13.2333 2.6404 -24.3832
ltibia 30.2706
lfoot -13.4339 3.74775
ltoes -0.138892
182
root 13.2667 17.5465 -0.524459 0.768734 -0.488158 3.64692
lowerback 8.16577 -0.60486 -5.8497
upperback 0.15076 -1.29588 1.3365
thorax -4.26957 -0.509302 4.84451
lowerneck -16.4834 -4.48648 -9.77426
upperneck 25.136 -5.38243 6.44447
head 11.348 -2.5984 3.22183
rclavicle -4.32357e-015 6.36111e-015
rhumerus -35.0876 -17.624 -77.533
rradius 28.2365
rwrist 11.4132
rhand -14.0439 14.5534
rfingers 7.12502
rthumb 12.0868 -15.0775
lclavicle -4.32357e-015 6.36111e-015
lhumerus -24.3562 8.0047 82.4937
lradius 26.3095
lwrist -9.73698
lhand -14.698 26.8681
lfingers 7.12502
lthumb 11.4561 56.5351
rfemur -28.3525 -9.61775 21.2894
rtibia 52.3511
rfoot -9.72482 -22.8745
rtoes 10.721
lfemur -12.8115 2.68666 -24.6041
ltibia 30.1947
lfoot -14.0083 4.43646
ltoes -0.677133
183
root 13.2574 17.5503 -0.421193 0.94952 -0.787126 3.68741
lowerback 8.10424 -0.615937 -5.80615
upperback 0.0956005 -1.30597 1.2962
thorax -4.29335 -0.513441 4.77776
lowerneck -16.1411 -4.30716 -9.94745
upperneck 25.0043 -5.2007 6.78177
head 11.2267 -2.49778 3.40612
rclavicle 2.41523e-014 -5.56597e-015
rhumerus -35.1533 -17.7222 -77.6094
rradius 28.4802
rwrist 11.3657
rhand -13.8012 14.0409
rfingers 7.12502
rthumb 12.3208 -15.5761
lclavicle 2.41523e-014 -5.56597e-015
lhumerus -23.8321 7.75317 82.322
lradius 26.0141
lwrist -9.8358
lhand -15.1522 26.4515
lfingers 7.12502
lthumb 11.018 56.1423
rfemur -28.9313 -9.82547 21.5118
rtibia 50.66
rfoot -10.1357 -23.2272
rtoes 12.833
lfemur -12.3963 2.68467 -24.6216
ltibia 29.9924
lfoot -14.4855 4.92198
ltoes -0.268934
